<?xml version="1.0" encoding="utf-8"?>
<!-- Generator: Adobe Illustrator 22.1.0, SVG Export Plug-In . SVG Version: 6.00 Build 0)  -->
<svg version="1.1" id="Layer_1" xmlns="http://www.w3.org/2000/svg" xmlns:xlink="http://www.w3.org/1999/xlink" x="0px" y="0px"
	 viewBox="0 0 96 92.3" style="enable-background:new 0 0 96 92.3;" xml:space="preserve">
<path d="M76,18H20v36h44V43.1c0-5,4.1-9.1,9.1-9.1H76V18z"/>
<path d="M79,6H15c-4.2,0-7,3.2-7,8v48H2c-1.1,0-2,0.9-2,2v2c0,4.8,2.8,8,7,8h57V58H18c-1.1,0-2-0.9-2-2V16c0-1.1,0.9-2,2-2h60
	c1.1,0,2,0.9,2,2v18h8V14C88,9.4,83.3,6,79,6z"/>
<path d="M68,50h28v28H68V50z"/>
<path d="M68,82v2.9c0,2.8,2.3,5.1,5.1,5.1h17.8c2.8,0,5.1-2.3,5.1-5.1V82H68z"/>
<path d="M96,46v-2.9c0-2.8-2.3-5.1-5.1-5.1H73.1c-2.8,0-5.1,2.3-5.1,5.1V46H96z"/>
</svg>
