<?xml version="1.0" encoding="utf-8"?>
<!-- Generator: Adobe Illustrator 22.1.0, SVG Export Plug-In . SVG Version: 6.00 Build 0)  -->
<svg version="1.1" id="Layer_1" xmlns="http://www.w3.org/2000/svg" xmlns:xlink="http://www.w3.org/1999/xlink" x="0px" y="0px"
	 viewBox="0 0 90 67" style="enable-background:new 0 0 90 67;" xml:space="preserve">
<style type="text/css">
	.st0{fill:none;}
</style>
<path class="st0" d="M1.9,184.6c0.9-2.8,3.2-5.6,4.1-6.6c1.7-1.7,5.8-4.1,10.5-4.9c3.6-0.7,12.2-1.9,19.8-1.3
	c8.5,0.7,12.9,4.8,14.4,7.5s2.9,8.8,0.7,16.7c-2.4,8.7-7.8,13.7-11.4,15.7s-8.8,3.9-15.9,3.2c-5.8-0.6-12.9-2.9-16.7-8.4
	s-5.8-12-6.1-14.9S1.9,184.6,1.9,184.6z"/>
<g>
	<path d="M45,35.8c-0.4,0-0.9,0-1.3,0.1c-1.4,0.1-2.1,0.2-2.8,0.4c-0.6,0.2-1.2,0.9-2,0.3c-7.5-5.6-17.1-5.2-23-4.2
		c-7,1.2-8.2,1.8-8.8,2s-1,0.2-1.1,0.8c0,0.8,0.1,3.2,0.1,3.7s0.4,0.4,1,0.9s1.4,1.2,1.7,2.4c0.3,1.1,1.7,7.5,3.6,10.1
		c2,2.6,5.2,4.7,8.5,5.5c2.4,0.5,7.3,1.1,12.1-1.7c3.1-1.8,5.8-5.8,7-9.9c0.5-1.7,0.8-2.8,0.9-3.3c0-0.8-0.8-1.1-0.4-2.2
		c0.4-1.2,2.2-1.8,4.1-1.8h0.6c1.9,0,3.7,0.5,4.1,1.8c0.3,1.1-0.5,1.4-0.4,2.2c0,0.5,0.4,1.6,0.9,3.3c1.2,4.2,3.9,8.1,7,9.9
		c4.8,2.8,9.7,2.2,12.1,1.7c3.4-0.7,6.6-2.9,8.5-5.5c2-2.6,3.4-8.9,3.6-10.1c0.3-1.1,1.1-1.9,1.7-2.4s1-0.4,1-0.9s0.2-2.9,0.1-3.6
		s-0.5-0.7-1.1-0.8c-0.6-0.2-1.8-0.8-8.8-2c-5.9-1-15.5-1.4-23,4.2c-0.8,0.6-1.4-0.1-2-0.3c-0.7-0.2-1.3-0.3-2.8-0.4
		C45.9,35.8,45.4,35.8,45,35.8L45,35.8z M38.8,44.2c-0.2,1.6-1.2,5.1-3.3,8.1s-5.9,4.2-9,4.5c-3.8,0.4-6.6-0.6-8.6-1.7
		s-4.8-3.8-6.1-8.5c-1.2-4.3-0.4-7.6,0.4-9c0.8-1.5,3.2-3.7,7.8-4c4.1-0.3,8.7,0.4,10.7,0.7c2.5,0.5,4.8,1.7,5.7,2.7
		c0.5,0.5,1.7,2.1,2.2,3.5C38.5,40.4,39,42.6,38.8,44.2z M78.2,46.6C76.9,51.3,74,54,72.1,55s-4.7,2.1-8.6,1.7c-3.1-0.3-7-1.6-9-4.5
		s-3.1-6.5-3.3-8.1c-0.2-1.6,0.3-3.7,0.3-3.7c0.5-1.5,1.7-3,2.2-3.5c0.9-0.9,3.1-2.2,5.7-2.7c2-0.4,6.6-1,10.7-0.7
		c4.6,0.4,7,2.6,7.8,4C78.7,39,79.4,42.3,78.2,46.6z"/>
	<path d="M76.9,36.7c-1.1,0.5-4.8,2.3-5.2,2.4c-0.5,0.2-1.3,1-1.5,1.3s-5.3,6.6-5.6,6.9c-0.3,0.3-0.7,1-0.6,1.6
		c0.1,0.5,0.4,1.9,0.5,2.7s0.6,0.9,0.7,0.9s0.5-0.1,1.1-1s5.5-9.9,6.3-10.5c0.8-0.6,3-0.2,4.1-0.3c0.7-0.1,1.3-0.2,1.8-0.3
		c-0.2-1.2-0.5-2.1-0.8-2.8C77.5,37.4,77.2,37,76.9,36.7z"/>
	<path d="M19.7,40.4c-0.2-0.3-1-1.1-1.5-1.3c-0.4-0.2-4.1-1.9-5.2-2.4c-0.3,0.3-0.5,0.7-0.7,1c-0.3,0.6-0.7,1.6-0.8,2.8
		c0.5,0.2,1,0.3,1.8,0.3c1.1,0.1,3.3-0.3,4.1,0.3c0.8,0.6,5.8,9.5,6.3,10.5s1,1,1.1,1s0.5-0.2,0.7-0.9c0.2-0.8,0.4-2.2,0.5-2.7
		s-0.3-1.2-0.6-1.6S20,40.7,19.7,40.4z"/>
</g>
</svg>
